<svg t="1700193420348" class="icon" viewBox="0 0 1024 1024" version="1.1" xmlns="http://www.w3.org/2000/svg" p-id="1537" width="48" height="48"><path d="M194.187431 235.50871m-69.997795 0a69.997795 69.997795 0 1 0 139.99559 0 69.997795 69.997795 0 1 0-139.99559 0Z" p-id="1538" fill="#f3f3f4"></path><path d="M347.505182 165.510915h552.305182v139.99559H347.505182z" p-id="1539" fill="#f3f3f4"></path><path d="M194.187431 512.1129m-69.997795 0a69.997795 69.997795 0 1 0 139.99559 0 69.997795 69.997795 0 1 0-139.99559 0Z" p-id="1540" fill="#f3f3f4"></path><path d="M347.505182 442.115105h552.305182v139.99559H347.505182z" p-id="1541" fill="#f3f3f4"></path><path d="M194.187431 788.49129m-69.997795 0a69.997795 69.997795 0 1 0 139.99559 0 69.997795 69.997795 0 1 0-139.99559 0Z" p-id="1542" fill="#f3f3f4"></path><path d="M347.505182 718.719294h552.305182v139.99559H347.505182z" p-id="1543" fill="#f3f3f4"></path></svg>